<?xml version="1.0" encoding="UTF-8"?>
<svg id="Layer_2" data-name="Layer 2" xmlns="http://www.w3.org/2000/svg" viewBox="0 0 519.95 144.37">
  <defs>
    <style>
      .cls-1 {
        fill: none;
        stroke: #fff;
        stroke-linecap: round;
        stroke-linejoin: round;
        stroke-width: 2px;
      }
    </style>
  </defs>
  <g id="Layer_1-2" data-name="Layer 1">
    <g fill="#fff">
      <path d="M72.36,144.37C32.72,144.74,.51,112.79,0,72.6-.49,32.99,31.72,.31,71.56,0c39.95-.31,72.39,31.42,72.83,71.26,.45,40.39-31.4,72.72-72.03,73.1Zm-.29-20.31c28.51,0,51.94-23.29,52.03-51.75,.09-28.42-23.19-51.8-51.78-52-28.32-.2-51.98,23.34-51.98,51.74,0,28.55,23.32,52,51.72,52.01Z"/>
      <path d="M269.35,40.24c2.23,.78,3.99,1.54,5.84,1.97,.86,.2,1.99-.02,2.79-.45,4.54-2.41,8.59-2.54,11.55,2,2.18-1.14,4.13-2.53,6.29-3.22,4.54-1.44,8.45,.79,8.62,5.47,.36,10.09,.11,20.2,.11,30.61h-5.7c0-9.17,.1-18.11-.09-27.04-.03-1.58-.99-4.18-2.03-4.46-1.59-.44-3.97,.27-5.36,1.34-.99,.76-1.2,2.92-1.22,4.47-.11,8.45-.05,16.9-.05,25.68-2.05,.15-3.64,.26-6.24,.44,0-4.86,0-9.43,0-14,0-4.49,.02-8.98-.01-13.47-.02-2.4-.07-5.11-3.43-4.86-2.98,.22-5.39,1.46-5.35,5.23,.1,7.98,.03,15.97,0,23.95,0,.8-.16,1.6-.27,2.74-1.77,.12-3.35,.23-5.45,.38V40.24Z"/>
      <path d="M470.8,40.33c2.45,.62,4.47,1.26,6.53,1.6,.88,.15,1.93-.17,2.78-.55,5.48-2.41,10.18-.86,11.09,5.02,1.1,7.15,1.34,14.6,.68,21.81-.8,8.73-6.22,11.09-14.59,6.8v13.66h-6.48V40.33Zm6.49,18.49c0,2.98,.16,5.98-.05,8.95-.2,2.8,1.29,4.4,3.62,4.1,1.61-.21,4.19-2.01,4.28-3.25,.45-6.41,.48-12.89,.06-19.3-.08-1.31-2.76-3.46-4.13-3.38-1.34,.08-3.3,2.36-3.63,3.96-.59,2.86-.17,5.93-.17,8.92Z"/>
      <path d="M235.38,76.69h-6.24c0-8.45,.06-16.72-.04-24.99-.03-2.46,.96-5.98-3.23-5.97-3.81,0-4.75,2.55-4.65,6.12,.22,8.13,.07,16.27,.07,24.75h-6.43V26.39c1.83-.09,3.73-.18,6.14-.3v17.59c2.62-1.18,4.55-2.3,6.63-2.94,4.3-1.32,7.49,.23,7.63,4.43,.36,10.41,.12,20.84,.12,31.52Z"/>
      <path d="M519.84,76.66h-6.56c0-8.59,.04-17.02-.03-25.45-.02-2.33,.84-5.58-3.12-5.48-3.34,.09-4.84,2.06-4.76,5.61,.18,8.29,.06,16.59,.06,25.36-2.08,.09-3.82,.17-6.08,.27V26.36c1.71-.08,3.48-.15,5.76-.25v17.67c2.39-1.15,4.03-2.07,5.77-2.74,5.05-1.93,8.57-.28,8.81,5.06,.46,10.07,.13,20.17,.13,30.55Z"/>
      <path d="M262.32,58.86c0,2.99,.22,6.01-.05,8.98-.55,6.14-3.79,9.25-9.49,9.45-6.48,.24-10.03-2.12-10.61-8.56-.61-6.73-.54-13.61,.08-20.34,.52-5.69,4.27-8.17,10.09-8.08,5.48,.08,8.92,2.67,9.71,8.09,.5,3.42,.09,6.97,.09,10.46,.06,0,.12,0,.18,0Zm-13.89-.55s-.05,0-.08,0c0,3.31-.35,6.68,.16,9.91,.24,1.5,2.15,2.73,3.31,4.08,1.3-1.18,3.66-2.31,3.72-3.56,.36-6.6,.31-13.23-.03-19.83-.07-1.28-2.06-2.47-3.16-3.7-1.31,1.23-3.47,2.29-3.74,3.71-.58,3.03-.18,6.25-.18,9.4Z"/>
      <path d="M331.39,77.84c-2.61-1.33-4.82-2.45-7.33-3.73-3.4,3.54-7.02,4.38-10.31,1.7-3.41-2.78-4.32-9.86-1.05-13.69,2.17-2.54,5.24-4.77,8.35-5.96,4.36-1.66,4.3-4.62,3.45-7.95-.29-1.13-1.93-2.73-2.87-2.68-1.32,.08-2.87,1.27-3.74,2.43-.7,.93-.54,2.51-.79,3.93h-5.31c-1.12-6.55,1.75-10.66,7.82-11.48,6.98-.95,11.5,2.21,11.71,8.84,.29,8.97,.07,17.95,.07,28.58Zm-6.55-18.21l-1.71-1.05c-1.92,2.45-4.39,4.68-5.5,7.45-.52,1.3,1.59,3.65,2.51,5.52,1.57-1.53,3.83-2.81,4.51-4.67,.79-2.15,.18-4.81,.18-7.25Z"/>
      <path d="M458.45,64.62h5.36c1.28,7.1-1.4,11.75-7.1,12.56-7.53,1.08-11.92-1.88-12.45-9.22-.46-6.29-.42-12.66,.07-18.95,.49-6.19,4.17-8.86,10.59-8.71,5.73,.13,8.67,2.82,9.29,8.94,.3,2.94,.05,5.94,.05,9.54h-13.8c0,3.22-.45,5.93,.15,8.39,.46,1.88,1.98,4.51,3.52,4.9,3.42,.87,3.78-2.2,4.02-4.79,.08-.81,.19-1.61,.31-2.67Zm-8.93-9.58h9.41c-1.05-3.5-1.78-6.49-2.95-9.3-.18-.43-3.25-.42-3.45,.05-1.17,2.69-1.88,5.59-3,9.26Z"/>
      <path d="M414.87,58.66c-.18,3.52-.08,7.04-.59,10.48-.83,5.64-4.21,8.2-10.06,8.16-5.77-.04-9.43-2.69-9.85-8.37-.49-6.77-.5-13.63,.03-20.4,.44-5.58,4.2-8.2,10.02-8.22,5.66-.02,9.07,2.73,9.89,8.42,.47,3.27,.39,6.63,.56,9.92Zm-6.76,.23s-.02,0-.04,0c0-3.15,.37-6.36-.15-9.41-.27-1.57-2.13-2.86-3.26-4.28-1.36,1.37-3.8,2.66-3.9,4.12-.45,6.26-.45,12.58-.04,18.85,.1,1.45,2.46,2.76,3.79,4.13,1.2-1.49,3.12-2.84,3.45-4.5,.57-2.87,.16-5.93,.16-8.91Z"/>
      <path d="M201.79,76.68h-6.65V32c-3.12-.25-5.69-.46-8.55-.69v-4.94h23.33v4.93c-2.51,.18-4.94,.35-8.13,.58v44.8Z"/>
      <path d="M351.22,50.89c-.31-.85-.43-1.93-1.02-2.6-1.03-1.16-2.21-2.5-3.59-2.92-.79-.24-2.9,1.06-3,1.84-.2,1.61,.07,3.71,1.01,4.95,1.69,2.21,4.04,3.91,6.09,5.84,.85,.8,1.7,1.6,2.45,2.48,3.17,3.74,4.36,7.97,1.92,12.43-2.45,4.49-6.88,5-11.33,4.12-4.87-.97-6.97-4.56-7.54-9.57,1.6-.54,3.1-1.05,4.91-1.66,.55,1.32,.97,2.35,1.41,3.36,1.28,2.96,3.84,4.39,6.25,2.43,1.17-.96,1.39-4.94,.37-6.36-2.18-3.03-5.8-4.99-8.14-7.94-1.83-2.3-3.27-5.32-3.74-8.21-.75-4.64,2.02-7.46,6.51-8.51,4.8-1.12,8.64,.84,10.66,5.12,1.54,3.28,.73,4.96-3.23,5.19Z"/>
      <path d="M419.16,67.43c1.79-.58,3.17-1.03,4.87-1.59,.54,1.17,.78,2.39,1.51,3.1,1.3,1.28,2.77,2.59,4.42,3.21,.75,.28,2.95-1,3.02-1.71,.17-1.83,.11-4.21-.94-5.51-2.04-2.55-5.24-4.21-7.18-6.82-2.05-2.76-4.06-6.07-4.52-9.36-.68-4.89,2.66-7.9,7.74-8.42,4.84-.49,9.37,2.53,9.84,7.08,.13,1.25-1.52,2.69-3.01,5.11-.93-2.37-1.07-3.44-1.67-4.07-1.16-1.21-2.47-2.44-3.97-3.1-.56-.25-2.54,1-2.61,1.68-.15,1.65,.05,3.59,.84,5,.86,1.52,2.55,2.56,3.88,3.81,1.45,1.37,2.96,2.68,4.31,4.14,3.71,3.99,4.69,8.86,2.51,12.78-2.39,4.29-6.45,5-10.78,4.38-5.21-.75-7.51-4.33-8.28-9.72Z"/>
      <path d="M380.13,26.38h6.96c0,5.36,0,10.62,0,15.89,0,7.81,.05,15.62-.01,23.42-.08,9.97-3.48,13-13.72,12.11-.77-2.52-1.26-4.55,2.64-5.06,3.88-.51,4.1-3.83,4.11-6.91,.03-11.3,.01-22.59,.02-33.89,0-1.78,0-3.56,0-5.57Z"/>
      <path d="M354.16,98.88c6.27,.11,12.73-1.93,16.96,4.44,2.71,4.08,2.71,8.59,0,12.66-4.23,6.37-10.7,4.33-16.96,4.44v-21.55Zm2.82,2.45v16.65c4.37,.44,9.26,1.74,11.24-2.95,1.31-3.1,1.31-7.66,0-10.76-1.99-4.68-6.88-3.38-11.24-2.94Z"/>
      <path d="M278.92,104.6c1.28,3.65,2.56,7.31,4.08,11.64,1.62-4.2,3.04-7.89,4.47-11.59,.54-.03,1.08-.07,1.61-.1,1.28,3.57,2.55,7.14,4.15,11.61,1.69-4.36,3.09-7.98,4.49-11.6,.6,.24,1.2,.48,1.8,.72-1.45,4.65-2.86,9.32-4.5,13.9-.08,.23-3.06,.06-3.33-.53-1.27-2.81-2.06-5.84-3.47-10.17-1.43,4.15-2.33,7.01-3.42,9.8-.32,.81-1.16,1.42-1.76,2.12-.73-.73-1.82-1.33-2.12-2.21-1.48-4.25-2.74-8.57-4.09-12.87,.69-.24,1.39-.48,2.08-.72Z"/>
      <path d="M220.6,116.28c2.63,.89,4.12,1.93,5.4,1.72,2.16-.37,4.18-1.53,6.27-2.35-1.28-1.57-2.43-3.28-3.87-4.69-1.99-1.94-4.96-3.32-5.99-5.62-.57-1.27,1.45-4.79,3.17-5.77,2.82-1.61,6.21-1.34,8.54,2.28-1.76-.29-3.57-.97-5.25-.74-1.39,.19-2.62,1.47-3.92,2.26,.8,1.27,1.38,2.79,2.46,3.73,.93,.81,2.44,.96,3.68,1.43,2.99,1.14,5.22,3.38,3.95,6.42-.93,2.21-3.36,4.45-5.63,5.27-2.77,1-6.09,.56-8.78-3.92Z"/>
      <path d="M450.83,105.55c1.42,0,2.71-.15,3.95,.03,2.55,.36,6.7,.2,7.26,1.51,1.24,2.88,1.51,6.84,.51,9.79-.59,1.73-4.34,2.46-6.75,3.44-.63,.26-1.56-.23-2.57-.41-.41,1.91-.8,3.69-1.18,5.47-.41-.04-.81-.09-1.22-.13v-19.71Zm.89,8.3c1.58,1.49,2.99,3.96,4.77,4.26,3.75,.62,4.52-2.64,4.57-5.55,.05-2.69-.39-5.54-4.1-5.54-3.92,0-4.46,2.65-5.24,6.84Z"/>
      <path d="M420.98,112.87h-10.3c.19,5.52,.59,5.71,10.15,4.83-3.13,3.47-6.44,3.49-9.6,2.02-4.19-1.95-4.58-5.94-3.62-9.84,.9-3.7,3.72-5.36,7.53-5.04,4.39,.37,5.68,3.25,5.84,8.04Zm-3.1-2.4c.23-.55,.45-1.11,.68-1.66-1.54-.61-3.1-1.74-4.61-1.67-1.32,.06-2.57,1.47-3.85,2.29,.2,.35,.39,.69,.59,1.04h7.19Z"/>
      <path d="M479.04,118.1c-2.76,3.04-6.19,3.25-9.51,1.21-3.67-2.25-3.89-6.07-2.82-9.74,1.08-3.68,3.99-5.13,7.76-4.7,4.17,.48,5.24,3.38,5.59,7.65-3.66,.26-7.15,.51-10.67,.76,.96,5.32,1.68,5.63,9.64,4.82Zm-2.13-7.61c.22-.57,.43-1.15,.65-1.72-1.56-.59-3.15-1.7-4.67-1.62-1.3,.07-2.53,1.5-3.79,2.33,.2,.33,.41,.67,.61,1h7.2Z"/>
      <path d="M342.98,113.04h-10.55c1.33,7.17,6,5.09,10.16,4.96-2.48,2.82-5.55,3.14-8.8,1.81-3.36-1.37-5.01-6.31-3.53-10.37,1.41-3.87,4.44-5.3,8.32-4.43,3.92,.88,5.19,3.61,4.4,8.03Zm-1.5-2.69c-3.87-4.57-6.18-4.41-8.45,0h8.45Z"/>
      <path d="M389.73,117.3c-3.88,3.99-7.27,3.86-10.63,2.07-3.06-1.63-4.36-7.29-2.58-10.72,1.65-3.16,4.42-4.45,7.91-3.69,3.96,.86,5.25,3.54,4.65,8h-10.38c1.17,5.67,2.14,6.09,11.03,4.35Zm-3.3-6.84c.22-.4,.45-.81,.67-1.21-1.39-.76-2.78-2.12-4.17-2.12-1.44,0-2.88,1.33-4.33,2.08,.21,.42,.42,.83,.63,1.25h7.19Z"/>
      <path d="M252.43,112.48c.06,5.12-2.56,8.04-7.23,8.06-4.52,.02-7.64-3.24-7.61-7.94,.03-4.5,2.97-7.69,7.23-7.84,4.71-.16,7.55,2.72,7.61,7.72Zm-.23-.11c-3.46-2.53-5.31-4.93-7.4-5.17-3.76-.43-4.37,2.92-4.3,5.89,.07,2.91,1.29,5.81,4.64,5.03,2.11-.49,3.77-2.95,7.06-5.74Z"/>
      <path d="M446.44,112.52c.05,5.11-2.59,8.02-7.27,8.03-4.51,0-7.61-3.28-7.56-7.98,.05-4.5,3-7.67,7.27-7.8,4.69-.14,7.52,2.76,7.57,7.76Zm-.22,.23c-3.36-2.71-5.09-5.2-7.19-5.55-3.74-.63-4.54,2.65-4.53,5.66,.01,2.87,1.03,5.87,4.42,5.26,2.12-.38,3.88-2.75,7.29-5.37Z"/>
      <path d="M310.35,118.2c-2.14,.66-4.28,1.71-6.44,1.75-.77,.01-2.56-3.12-2.19-3.65,1.18-1.71,3.12-2.92,4.83-4.25,1.42-1.11,2.93-2.1,4.39-3.15-2-.41-3.98-.88-5.99-1.2-.56-.09-1.19,.24-1.78,.37l-.53-1.41c2.15-.61,4.42-1.93,6.43-1.61,1.64,.26,3.96,2.3,4.23,3.86,.63,3.61,.2,7.4,.2,11.86-1.59-1.15-2.45-1.77-3.31-2.39,.3-1.41,.6-2.82,.9-4.23-.38-.38-.76-.76-1.15-1.14-1.87,1.11-3.75,2.22-5.62,3.32,1.85,.59,3.7,1.18,5.55,1.77,.15,.05,.32,.08,.47,.12Z"/>
      <path d="M393.22,104.35c1.69,3.87,3.37,7.73,5.32,12.21,1.89-4.37,3.55-8.19,5.2-12.01,.67,.29,1.35,.57,2.02,.86-1.93,4.76-3.81,9.53-5.92,14.21-.08,.19-2.93-.2-3.24-.88-1.97-4.33-3.59-8.82-5.33-13.25,.65-.37,1.3-.75,1.95-1.12Z"/>
      <path d="M256.1,104.28q5.36-5.32,8.09-4.55c-1.72,1.09-3.31,2.1-5.78,3.66,2.49,.95,3.91,1.48,6.19,2.35-1.98,.84-3.29,1.4-5.27,2.24v12.23c-.52,.04-1.04,.09-1.56,.13-.51-4.91-1.02-9.82-1.66-16.05Z"/>
      <path d="M275.19,118.69c-5.06,2.98-7.02,1.98-7.35-3.09-.22-3.31-.66-6.6-1.92-9.6,1.1-1.96,2.21-3.92,3.2-5.69,1.63,1.91,3.33,3.9,5.19,6.07-.74,.23-2.06,.62-3.38,1.02-1.43,9.13-1.05,10.28,4.26,11.28Z"/>
      <path d="M327.26,105.5c-6.67,1-6.41,5.67-6.22,10.46,.06,1.5-.56,3.03-.87,4.55l-1.38-.23v-14.78h8.47Z"/>
      <path d="M483.94,105.9c3.57-.37,6.28-.66,9.03-.95-2.39,2.21-5.33,3.75-6.22,6.08-1.03,2.69-.24,6.07-1.25,9.2-2.3-4.75-1.38-9.77-1.56-14.33Z"/>
      <path d="M70.28,45.89c-2.06-.23-3.65-.4-5.23-.57,0-.25,.02-.49,.02-.74h24.31c-.66,1.84-2.1,4.1-2.18,6.4-.41,12.14,.22,24.34-.83,36.41-1.23,14.06-18.49,21.45-30.51,13.72-3.98-2.56-4.77-6.34-3.49-10.49,1.25-4.05,4.79-5.36,8.39-4.26,2.09,.64,4.39,2.96,5.11,5.04,.71,2.03,1.13,5.54-3.05,6.02-.2,.02-.64,3.56-.05,3.91,2.53,1.49,5.18,1.34,6.72-1.69,.51-1,.76-2.24,.77-3.36,.05-16.64,.03-33.28,.03-50.38Z"/>
      <path class="cls-1" d="M72.29,100.4c-6.82,3.73-10.45,3.28-14-1.75"/>
      <path class="cls-1" d="M352.79,47.65c-4.29-5.95-5.97-6.39-11.5-3"/>
      <path class="cls-1" d="M351.79,63.65c2.29,5.16,1.56,9.19-2,11-2.83,1.44-7.9-.98-10.5-5"/>
      <path class="cls-1" d="M435.79,47.65c-4.29-5.95-5.97-6.39-11.5-3"/>
      <path class="cls-1" d="M434.79,63.65c2.29,5.16,1.56,9.19-2,11-2.83,1.44-7.9-.98-10.5-5"/>
      <path class="cls-1" d="M474.29,72.65c3.83,.5,7.67,1,11.5,1.5"/>
      <path class="cls-1" d="M484.29,42.9c-2.83,.75-5.67,1.5-8.5,2.25"/>
      <path class="cls-1" d="M377.29,75.4c-.5,.08-1,.17-1.5,.25"/>
      <path class="cls-1" d="M448.29,57.15c4.17-.33,8.33-.67,12.5-1"/>
      <path class="cls-1" d="M301.79,74.65c0-8,.03-16,0-24-.04-8.6-2.98-10.25-10.5-6.02-1.1,.62-2.32,1.02-3.49,1.52"/>
      <path class="cls-1" d="M228.29,43.15c-3.17,.83-6.33,1.67-9.5,2.5"/>
      <path class="cls-1" d="M233.29,101.15c-2-.33-4.17-1.3-5.95-.81-1.58,.43-3.26,2.28-3.84,3.89-.33,.91,1.2,2.92,2.36,3.83,1.17,.92,2.99,.96,4.41,1.62,2.26,1.06,4.3,2.32,3.54,5.47-.72,2.99-2.34,4.59-5.52,3.97-1.86-.37-3.67-.98-5.5-1.48"/>
      <path class="cls-1" d="M239.29,113.15c-.09,4.82,2.49,6.28,7,6.07,4.6-.22,4.82-3.7,4.83-6.57,.01-2.67-.09-6.18-4.33-6.52-4.15-.33-7.31,.52-7.52,5.52-.01,.34-.31,.67-.48,1"/>
      <path class="cls-1" d="M433.29,113.15c-.09,4.82,2.49,6.28,7,6.07,4.6-.22,4.82-3.7,4.83-6.57,.01-2.67-.09-6.18-4.33-6.52-4.15-.33-7.31,.52-7.52,5.52-.01,.34-.31,.67-.48,1"/>
      <path class="cls-1" d="M503.29,46.15c3.33-.83,6.67-1.67,10-2.5"/>
      <path class="cls-1" d="M452.29,118.15c7.54,2.43,10.74,.18,10.01-7-.34-3.37-1.73-5.4-5.51-5.02-3.4,.34-5.56,1.74-5.51,5.52,.06,4.33,.01,8.67,.01,13"/>
      <path class="cls-1" d="M272.29,44.15c1.67-.17,3.33-.36,5-.49,2.5-.19,5-.34,7.5-.51"/>
      <path class="cls-1" d="M391.79,106.15c2.2,4.15,4.41,8.3,7.06,13.3,1.94-4.92,3.69-9.36,5.44-13.8"/>
      <path class="cls-1" d="M332.29,111.65c1.5,.17,3.03,.6,4.49,.43,1.7-.2,3.34-.93,5.01-1.43-.5-1.17-.76-3.11-1.55-3.35-2.03-.62-4.74-1.34-6.36-.48-3.82,2.03-3.06,6.18-1.94,9.27,1.66,4.59,5.8,3.19,9.35,2.54,.35-.06,.67-.32,1-.49"/>
      <path class="cls-1" d="M378.29,111.65c1.5,.17,3.03,.6,4.49,.43,1.7-.2,3.34-.93,5.01-1.43-.5-1.17-.76-3.11-1.55-3.35-2.03-.62-4.74-1.34-6.36-.48-3.82,2.03-3.06,6.18-1.94,9.27,1.66,4.59,5.8,3.19,9.35,2.54,.35-.06,.67-.32,1-.49"/>
      <path class="cls-1" d="M426.29,98.65v21"/>
      <path class="cls-1" d="M311.29,112.65c-1.83,.17-3.9-.13-5.43,.64-1.33,.67-2.07,2.53-3.07,3.86,1.5,.67,2.97,1.78,4.51,1.87,1.46,.09,2.99-.87,4.49-1.37"/>
      <path class="cls-1" d="M326.79,56.65c-5.26,.48-9.22,3.05-12,7.5"/>
      <path class="cls-1" d="M319.29,74.4c2.67-1.42,5.33-2.83,8-4.25"/>
      <path class="cls-1" d="M269.29,100.65v18.63c2.2-.25,3.85-.44,5.5-.63"/>
      <path class="cls-1" d="M409.79,112.15h9.6c.29-4.21-.86-6.14-5.1-6.11-3.49,.02-5.25,1.31-5.47,4.62-.25,3.68-.33,7.61,4.49,8.39,1.9,.31,3.98-.56,5.98-.89"/>
      <path class="cls-1" d="M468.79,112.15h9.6c.29-4.21-.86-6.14-5.1-6.11-3.49,.02-5.25,1.31-5.47,4.62-.25,3.68-.33,7.61,4.49,8.39,1.9,.31,3.98-.56,5.98-.89"/>
      <path class="cls-1" d="M312.29,119.65c0-3.17,.37-6.4-.16-9.47-.25-1.49-1.97-3.46-3.39-3.83-1.79-.47-3.95,.47-5.95,.81"/>
      <path class="cls-1" d="M263.79,100.15c-3.76-.45-5.88,.57-5.58,5.01,.33,4.81,.08,9.66,.08,14.49"/>
      <path class="cls-1" d="M287.79,106.65c2,4,4,8,6,12"/>
      <path class="cls-1" d="M278.29,105.65c1.21,4.04,2.42,8.08,3.64,12.11,.43,.1,.86,.2,1.28,.3,1.36-3.3,2.72-6.61,4.08-9.91"/>
      <path class="cls-1" d="M298.29,105.65c-1.33,3.83-2.67,7.67-4,11.5"/>
      <path class="cls-1" d="M485.29,105.65v14"/>
      <path class="cls-1" d="M319.29,105.65c.17,4.33,.33,8.67,.5,13"/>
      <path class="cls-1" d="M207.79,28.65c-2.33,.17-4.67,.33-7,.5"/>
      <path class="cls-1" d="M200.29,29.15c-3.83-.17-7.67-.33-11.5-.5"/>
      <path class="cls-1" d="M326.79,106.15c-2.17,.83-4.33,1.67-6.5,2.5"/>
      <path class="cls-1" d="M492.79,106.15c-2.17,.67-4.33,1.33-6.5,2"/>
      <path class="cls-1" d="M70.79,45.15c-2-.17-4-.33-6-.5"/>
      <path class="cls-1" d="M274.79,106.15h-9"/>
      <path class="cls-1" d="M263.79,106.15c-3-.17-6-.33-9-.5"/>
      <path class="cls-1" d="M90.79,44.65c-1.33,.17-2.67,.33-4,.5"/>
      <path class="cls-1" d="M356.79,100.15c-.5,1.33-1.38,2.65-1.43,4-.18,4.83-.07,9.68-.07,15.2,4.17-.26,8.19,.39,11.41-.92,4.33-1.76,5.32-6.79,4.15-11.8-1.24-5.3-4.58-6.93-9.56-6.5-1.32,.11-2.67,.02-4,.02"/>
    </g>
  </g>
</svg>